<?xml version="1.0" encoding="utf-8"?>
<svg id="master-artboard" viewBox="0 0 1400 980" version="1.1" xmlns="http://www.w3.org/2000/svg" x="0px" y="0px" style="enable-background:new 0 0 1400 980;" width="1400px" height="980px"><defs><style id="ee-google-fonts">@import url(https://fonts.googleapis.com/css?family=Rubik:300,300italic,400,400italic,500,500italic,700,700italic,900,900italic);</style></defs><rect id="ee-background" x="0" y="0" width="1400" height="980" style="fill: white; fill-opacity: 1; pointer-events: none;"/>


<path class="st1" d="M636.3,463.7c-30.6,0-55.4,24.9-55.4,55.4c0,57.2,58.9,108,105.2,108l0,0c1.5,0,2.9-0.1,4.3-0.2&#10;&#9;c0.7,0,1.2-0.6,1.2-1.3V519.1C691.7,488.6,666.9,463.7,636.3,463.7z" style="fill: rgb(232, 56, 74); stroke: rgb(107, 61, 52); stroke-width: 4;" transform="matrix(1.2658737897872925, 0, 0, 1.2658737897872925, -191.00262850776582, -209.0258174977912)"/>
<path class="st1" d="M712.7,554.2c-0.2-0.7-0.9-1.1-1.6-0.9c-0.7,0.2-1.1,0.9-1,1.6l-2.8,0.6c-0.2-1.3-0.3-2.2-0.4-2.6&#10;&#9;c-0.1-0.7-0.8-1.2-1.5-1.1c-0.7,0.1-1.2,0.8-1.1,1.5l-5.9,0.9c-0.1-0.5-0.4-0.9-0.9-1.1c0-0.2,0-0.4,0-0.6c-0.1-0.7-0.7-1.3-1.4-1.2&#10;&#9;s-1.2,0.6-1.2,1.3H689c0-0.7-0.5-1.3-1.2-1.3c-0.8-0.1-1.4,0.5-1.4,1.2c0,0.1,0,0.2,0,0.4c-0.4,0.2-0.7,0.7-0.8,1.2l-5.9-0.9&#10;&#9;c0.1-0.7-0.4-1.4-1.1-1.5c-0.7-0.1-1.4,0.4-1.5,1.1c-0.1,0.4-0.2,1.2-0.4,2.5l-2.4-0.5c0.2-0.7-0.3-1.4-1-1.6&#10;&#9;c-0.7-0.2-1.5,0.2-1.6,0.9c-1.9,7.2-47.4,176.9-34.1,198.9c0.9,1.5,2.1,2.4,3.5,2.7c0.3,0.1,0.7,0.1,1,0.1c1.1,0,2.1-0.4,3.2-1.1&#10;&#9;c4.8-3.5,9.5-16.6,13.8-34.4c-0.1,16.1,1.2,28.3,4.7,33c1.1,1.4,2.3,2.3,3.7,2.5c0.2,0,0.5,0.1,0.7,0.1c1.2,0,2.4-0.5,3.4-1.5&#10;&#9;c4.1-3.6,7.2-15.1,9.5-30.9c1.2,15.2,3.4,26.5,7,30.5c1.2,1.3,2.5,1.9,3.9,1.9s2.8-0.6,3.9-1.9c3.7-4,5.9-15.5,7.1-31.1&#10;&#9;c2.4,16.2,5.5,28,9.6,31.6c1.1,0.9,2.2,1.4,3.4,1.4c0.2,0,0.5,0,0.7-0.1c1.4-0.2,2.7-1.1,3.7-2.5c3.6-4.9,4.8-17.8,4.7-34.8&#10;&#9;c4.4,18.8,9.2,32.6,14.2,36.2c1,0.8,2.1,1.1,3.2,1.1c0.3,0,0.7,0,1-0.1c1.4-0.3,2.6-1.2,3.5-2.7&#10;&#9;C760.1,731.1,714.6,561.4,712.7,554.2z" style="fill: rgb(232, 56, 74); stroke: rgb(107, 61, 52); stroke-width: 4;" transform="matrix(1.2658737897872925, 0, 0, 1.2658737897872925, -191.00262850776582, -209.0258174977912)"/>
<path class="st2" d="M437.9,592.8c0.8-1,1.9-1.1,3.2-1.1c20.8,0,41.6,0,62.4,0c0.5,0,1,0,1.4,0c0.3,0,0.6,0.1,0.7-0.2&#10;&#9;s-0.2-0.4-0.4-0.6c-9.8-7.2-9.9-22.3-4.5-32.1c1.1-2,2.3-3.9,3.7-5.7c3.8-5,6.8-10.5,9.3-16.3c0.4-1,0.8-1.9,2.1-2&#10;&#9;c1.2-0.1,1.8,0.8,2.3,1.7c3.5,5.7,7.5,10.9,12.3,15.6c5.8,5.8,9.1,12.7,9.4,20.9c0.3,7-2,12.9-7.6,17.4c-0.4,0.3-1.1,0.5-0.9,0.9&#10;&#9;c0.2,0.5,0.9,0.3,1.4,0.3c30.9,0,61.8,0,92.7,0c0.2,0,0.3,0,0.5,0c0.4-0.1,1,0.2,1.2-0.3s-0.3-0.7-0.6-1c-7-8.6-12-18.2-15.2-28.8&#10;&#9;c-3.6-12.2-4.1-24.7-2.6-37.2c2.2-18.3,9.8-34.3,20.4-49.1c3.6-5.1,7.4-10,10.5-15.4c2.5-4.2,4.5-8.6,4.5-13.7&#10;&#9;c0-2.4-0.5-4.5-2.4-6.4c-2.7-2.7-4.7-5.8-6.4-9.2c-0.5-0.9-0.9-1-1.8-0.7c-3.5,1.5-7,2.9-10.6,4.3c-1.7,0.7-2.6,0.3-3.2-1.3&#10;&#9;c-8.5-21.4-7.9-42.1,4.8-61.7c5.3-8.2,12.6-14.4,21.3-18.9c10.5-5.4,21.5-8.7,33.4-8.4c4,0.1,7.9,0.5,11.8,1.4&#10;&#9;c1.2,0.3,1.9,0.1,2.6-0.8c7.9-8.9,15.8-17.8,23.8-26.6c0.2-0.2,0.4-0.4,0.5-0.6c0.7-0.8,1.4-1.3,2.5-0.9s1.3,1.3,1.3,2.3&#10;&#9;c-0.1,6.5-0.9,12.8-2.4,19.1c-0.3,1.1-0.8,2.1-0.8,3.2c1.2-0.3,2-1.1,3-1.7c4.9-3.2,9.8-6.5,14.7-9.8c1-0.7,1.9-1.2,3.1-0.4&#10;&#9;c1,0.8,0.8,1.8,0.5,2.9c-1.8,6.2-4.2,12.1-7.3,17.8c-0.2,0.3-0.6,0.6-0.3,0.9s0.7-0.1,1-0.3c5.1-2.5,10.2-5,15.3-7.5&#10;&#9;c0.4-0.2,0.9-0.5,1.3-0.6c0.8-0.4,1.7-0.4,2.4,0.2c0.8,0.7,0.8,1.6,0.4,2.5c-4.7,10.7-10.5,20.7-20.2,27.7c-1,0.7-0.6,1.2-0.2,1.9&#10;&#9;c5.5,9.6,8.2,19.9,7.8,31.1c-0.4,11.4-3.7,21.9-10.3,31.3c-3.1,4.5-3.6,9.2-2.3,14.2c1.2,4.9,4,9.1,6.8,13.2&#10;&#9;c5,7.4,10.4,14.4,14.9,22.1c8.7,14.7,13.3,30.6,13.8,47.8c0.6,20.9-5.4,39.6-18.4,56c-0.3,0.4-0.9,0.7-0.7,1.2s0.9,0.2,1.3,0.2&#10;&#9;c40.6,0,81.2,0,121.8,0c0.4,0,1.1,0.2,1.3-0.2c0.1-0.5-0.6-0.6-0.9-0.9c-17.1-11.8-34.2-23.6-51.3-35.5c-2.4-1.6-2.5-2.3-0.8-4.7&#10;&#9;c2.5-3.4,4.9-6.9,7.4-10.3c1.2-1.7,2.1-1.9,3.9-0.6c8,5.5,16,11.1,24.1,16.6c0.4,0.3,0.8,0.5,1.2,0.8c0.1,0.1,0.4,0.2,0.4,0.2&#10;&#9;c0.2-0.2,0.1-0.4,0-0.6c-5.1-11.4,1.4-23.8,14.8-29.1c3.7-1.5,7.6-2.2,11.6-2.1c7.2,0.2,14.3-0.5,21.4-2c2.1-0.4,3.3,1,2.4,2.9&#10;&#9;c-3,7-4.8,14.3-6.3,21.7c-1.5,7.8-5.7,13.9-12.1,18.5c-3.3,2.4-7.1,3.8-11.2,3.9c-0.3,0-0.8-0.2-1,0.2c-0.1,0.3,0.4,0.5,0.6,0.6&#10;&#9;c9.7,6.7,19.3,13.3,29,20c0.7,0.5,1.5,0.5,2.3,0.5c18.3,0,36.6,0,54.9,0c3.3,0,3.6,0.3,3.6,3.6c0,4.2,0,8.4,0,12.5&#10;&#9;c0,2-0.7,2.7-2.7,2.7c-6.8,0-13.6,0-20.4,0c-0.4,0-0.9-0.2-1,0.2s0.4,0.5,0.7,0.7c6.3,5.6,7.8,12.6,5.8,20.5c-1.3,5-2.6,9.9-3,15.1&#10;&#9;c-0.1,1.8-1.9,2.6-3.3,1.5c-4.3-3.6-9.2-6.2-14.1-8.9c-4-2.3-6.8-5.7-8.5-10c-2.9-7-0.8-13.8,5.3-18.1c0.3-0.2,0.9-0.3,0.8-0.7&#10;&#9;c-0.1-0.4-0.7-0.2-1-0.2c-22.7,0-45.5,0-68.2,0c-0.4,0-0.9,0-1,0.1c-0.2,0.3,0.3,0.5,0.5,0.7c6.8,5.7,9.1,13.3,9.1,21.8&#10;&#9;c0,3.8-1,7.4-2.2,11c-1.9,5.9-2.8,12-3.3,18.1c-0.1,1-0.3,1.8-1.2,2.3c-0.9,0.4-1.7,0.1-2.5-0.5c-5.3-4.4-11.1-8.2-17.4-11.2&#10;&#9;c-7.6-3.7-13-9.5-15.8-17.6c-3.1-9.1-0.2-17.9,7.5-23.6c0.3-0.2,1-0.4,0.8-0.8c-0.1-0.4-0.8-0.1-1.2-0.1c-80,0-160,0-240,0&#10;&#9;c-0.6,0-1.2,0-1.8,0.4c-4.9,3.6-9.9,7.1-14.9,10.7c-0.2,0.2-0.7,0.3-0.5,0.7c0,0.1,0.5,0.1,0.7,0.1c9.8,0.2,16.9,6.7,19.7,15.8&#10;&#9;c1.9,6.2,1.9,12.5-0.1,18.7c-2.3,6.9-3.8,13.9-4.5,21.2c-0.2,2-2,2.8-3.5,1.5c-5.9-5.1-12.5-8.9-19.3-12.7&#10;&#9;c-8.3-4.7-13.3-11.9-14.7-21.5c-0.3-2.4-0.1-4.8,0.5-7.2c0.1-0.3,0.5-0.7,0.1-1c-0.1-0.1-0.5,0.3-0.8,0.4&#10;&#9;c-4.8,3.4-9.6,6.9-14.4,10.3c-2.2,1.6-2.9,1.5-4.4-0.7c-2.5-3.4-4.9-6.9-7.4-10.3c-1.4-1.9-1.3-2.7,0.7-4.1c9.7-7,19.5-14,29.2-21&#10;&#9;c0.3-0.2,0.6-0.4,0.9-0.7c0.1-0.1,0.4-0.3,0.3-0.5c0-0.3-0.3-0.2-0.5-0.2c-0.4,0-0.9,0-1.3,0c-36.3,0-72.6,0-108.9,0&#10;&#9;c-1.3,0-2.5-0.1-3.2-1.3C437.9,603.7,437.9,598.3,437.9,592.8z" style="fill: rgb(107, 61, 52);" transform="matrix(1.2658737897872925, 0, 0, 1.2658737897872925, -191.00262850776582, -209.0258174977912)"/>
<path class="st3" d="M685.4,591.7c16.9,0,33.8,0,50.7,0c1.4,0,2.3-0.4,3.2-1.4c11.2-12.8,17.8-27.7,19.4-44.6&#10;&#9;c1.8-19.1-2-37.2-11.2-54.1c-4.6-8.4-10.4-16-15.8-23.8c-3.1-4.5-6.1-9.1-7.7-14.4c-2-6.6-1.5-12.9,2.6-18.8&#10;&#9;c6.4-9.1,9.5-19.4,9.6-30.5c0.1-10.7-3-20.6-8.7-29.6c-1.2-1.9-1.1-2.8,0.9-3.9c1.6-0.9,3.1-2,4.4-3.2c5.7-5,9.7-11.2,13.3-17.8&#10;&#9;c0.1-0.3,0.5-0.6,0.2-0.8c-0.3-0.3-0.6,0.1-0.9,0.2c-6.1,3-12.2,6-18.3,9c-1.1,0.5-2.2,0.9-3-0.2c-0.8-1-0.5-2.1,0.3-3&#10;&#9;c2.1-2.5,3.8-5.2,5.3-8.1c1.7-3.2,3.2-6.5,4.4-10c0.1-0.2,0.2-0.6,0.1-0.7c-0.3-0.3-0.5,0.1-0.8,0.2c-0.3,0.2-0.6,0.4-0.9,0.6&#10;&#9;c-5.6,3.7-11.2,7.5-16.9,11.2c-0.9,0.6-1.9,0.9-2.8,0.2c-0.9-0.7-0.9-1.6-0.5-2.6c2.9-6.4,4.3-13.2,5.1-20.2c0-0.4,0.4-1,0-1.2&#10;&#9;s-0.6,0.4-0.9,0.7c-6.9,7.7-13.8,15.3-20.5,23c-1.4,1.6-2.6,1.9-4.6,1.4c-11.4-2.6-22.5-2-33.5,2c-0.5,0.2-1.2,0.2-1.3,1&#10;&#9;c-0.1,1.3-0.3,2.5,0.3,3.9c13.4,30.6,26.7,61.2,40,91.8c1.2,2.7,0.9,3.4-1.8,4.3c-16.2,5.8-31.5,4.1-45.7-5.8&#10;&#9;c-0.3-0.2-0.6-0.6-0.9-0.5c-0.4,0.2-0.2,0.7-0.2,1c-0.1,0.9-0.1,1.7-0.2,2.6c-0.9,5.6-3.5,10.5-6.7,15.2&#10;&#9;c-4.1,6.1-8.5,12.1-12.6,18.3c-10.6,15.8-16.4,33.1-16.8,52.2c-0.4,20.9,6.2,39.2,19.8,55.1c0.8,1,1.7,1.4,3,1.4&#10;&#9;C651.6,591.7,668.5,591.7,685.4,591.7z" style="fill: rgb(237, 192, 98);" transform="matrix(1.2658737897872925, 0, 0, 1.2658737897872925, -191.00262850776582, -209.0258174977912)"/>
<path class="st2" d="M700,595.7c-85.1,0-170.3,0-255.4,0c-0.4,0-0.9,0.1-1.3,0c-1.1-0.2-1.3,0.4-1.3,1.4c0.1,2.3,0,4.5,0,6.8&#10;&#9;c0,3-0.4,2.6,2.6,2.6c170.3,0,340.7,0,511,0c0.3,0,0.6,0,1,0c1.2,0.2,1.6-0.3,1.6-1.5c-0.1-2.4,0-4.7,0-7.1c0-2.6,0.3-2.2-2.2-2.2&#10;&#9;C870.6,595.7,785.3,595.7,700,595.7z" style="fill: rgb(107, 61, 52);" transform="matrix(1.2658737897872925, 0, 0, 1.2658737897872925, -191.00262850776582, -209.0258174977912)"/>
<path class="st4" d="M618.1,403.2c0,9.9,1.6,18.1,4.1,25.1c0.5,1.3,1,1.4,2.2,0.9c16.4-6.7,32.8-13.4,49.2-20c1.1-0.4,1.4-0.8,0.9-2&#10;&#9;c-7.5-17.2-15-34.3-22.4-51.5c-0.6-1.4-1.1-1.6-2.5-0.9C628.8,365.4,619,382.9,618.1,403.2z" style="fill: rgb(36, 154, 75);" transform="matrix(1.2658737897872925, 0, 0, 1.2658737897872925, -191.00262850776582, -209.0258174977912)"/>
<path class="st4" d="M677.1,451.8c4.8-0.1,9.5-0.9,14.1-2.3c1.2-0.4,1.4-0.8,0.9-2c-4.9-11.2-9.8-22.4-14.7-33.7&#10;&#9;c-0.5-1.2-0.9-1.5-2.2-0.9c-11.7,4.8-23.5,9.6-35.2,14.3c-1.3,0.5-1.4,1-0.7,2.2C647.7,443.8,660.5,451,677.1,451.8z" style="fill: rgb(36, 154, 75);" transform="matrix(1.2658737897872925, 0, 0, 1.2658737897872925, -191.00262850776582, -209.0258174977912)"/>
<path class="st4" d="M839.4,611.1c-1-0.1-2.1,0.2-3.2,0.3c-1.1,0.1-1.4,0.4-0.8,1.6c2.2,3.8,4.1,7.7,5.7,11.7&#10;&#9;c1.8,4.4,3.4,8.8,4.4,13.4c0.3,1.2,0,2.3-1.4,2.7c-1.2,0.4-2.1-0.3-2.6-1.8c-0.2-0.8-0.4-1.7-0.7-2.5c-2.2-7.8-5.5-15.2-9.5-22.2&#10;&#9;c-0.3-0.6-0.6-1-1.4-0.5c-5.7,3-9.4,9.8-8.5,16.1c1.2,8.1,5.7,14.1,12.7,18.1c5.6,3.2,11.5,6,16.6,10.1c0.7,0.6,1,0.4,1.1-0.5&#10;&#9;c0.5-5.7,1.9-11.2,3.6-16.6c2-6.1,1.9-12.2-0.4-18.3C852.5,615.5,846.6,611.1,839.4,611.1z" style="fill: rgb(36, 154, 75);" transform="matrix(1.2658737897872925, 0, 0, 1.2658737897872925, -191.00262850776582, -209.0258174977912)"/>
<path class="st4" d="M551.1,643.7c0.1,0.6,0.1,1.6,0.3,2.6c1.6,7.2,5.5,12.8,11.7,16.5c5.7,3.4,11.8,6.4,17,10.7&#10;&#9;c0.5,0.4,0.9,0.6,1-0.4c0.7-6.4,2.6-12.5,4.4-18.6c1.8-6.1,1.3-12.1-1.3-17.9c-3.4-7.9-11.1-11.7-19.3-9.8c-1.2,0.3-1.7,0.6-1.3,2&#10;&#9;c1.9,6.2,4,12.2,6.9,17.9c1,2.1,2.2,4,3.3,6c0.8,1.5,0.7,2.6-0.4,3.2c-1.1,0.7-2.2,0.3-3.1-1.2c-0.3-0.5-0.6-1-0.9-1.5&#10;&#9;c-4.2-7.2-7.3-14.9-9.6-22.9c-0.4-1.3-0.8-1.3-1.7-0.6C553.7,633.2,551.1,637.6,551.1,643.7z" style="fill: rgb(36, 154, 75);" transform="matrix(1.2658737897872925, 0, 0, 1.2658737897872925, -191.00262850776582, -209.0258174977912)"/>
<path class="st4" d="M854.5,548.4c0,2.8,0.8,5.4,2,7.9c0.5,0.9,0.7,1.2,1.6,0.3c5-5.3,10.6-10,16.6-14.1c1.6-1,3.1-2.1,4.8-3&#10;&#9;c1-0.6,2.1-0.4,2.8,0.7c0.6,1.1,0.3,2.1-0.8,2.8c-0.3,0.2-0.5,0.3-0.8,0.5c-7.6,4.5-14.2,10.2-20.3,16.5c-0.6,0.6-0.6,0.9,0,1.5&#10;&#9;c4.7,4.3,10.1,6.2,16.3,4c8.3-2.9,13-9.1,15.1-17.4c1.6-6.4,2.5-13,5.1-19.2c0.3-0.8,0.2-1-0.7-0.8c-5.7,1-11.5,1.3-17.3,1.2&#10;&#9;c-5.9-0.1-11.3,1.4-16.2,4.9C857.8,537.6,854.6,542.2,854.5,548.4z" style="fill: rgb(36, 154, 75);" transform="matrix(1.2658737897872925, 0, 0, 1.2658737897872925, -191.00262850776582, -209.0258174977912)"/>
<path class="st4" d="M522.5,582.3c0,2.4,0,4.7,0,7.1c0,1,0.2,1.2,1.2,0.9c6.4-1.9,10.5-6,11.7-12.5c1.4-8.1-1.1-15.2-6.5-21.2&#10;&#9;c-4.2-4.7-8.6-9.2-12.1-14.6c-0.5-0.8-0.8-0.6-1.1,0.1c-2.6,5.6-6.1,10.7-9.7,15.7c-3.8,5.3-5.2,11.2-4.8,17.6&#10;&#9;c0.6,8.7,7.1,15,15.7,15.5c1,0.1,1.3-0.1,1.4-1.1c0.2-5.7,0.1-11.5-0.6-17.2c-0.4-3.2-0.9-6.4-1.7-9.5c-0.2-1-0.1-1.9,0.9-2.5&#10;&#9;c0.8-0.4,1.6-0.3,2.3,0.2c0.6,0.5,0.7,1.3,0.9,2C521.7,569.3,522.4,575.8,522.5,582.3z" style="fill: rgb(36, 154, 75);" transform="matrix(1.2658737897872925, 0, 0, 1.2658737897872925, -191.00262850776582, -209.0258174977912)"/>
<path class="st2" d="M885,591.7c2.6,0,5.3,0,7.9,0c0.5,0,1.1,0.3,1.3-0.2c0.1-0.5-0.6-0.7-0.9-0.9c-8.8-6.1-17.7-12.2-26.6-18.4&#10;&#9;c-13.4-9.3-26.9-18.6-40.3-27.9c-1-0.7-1.5-0.6-2.2,0.4c-1.3,2.1-2.8,4.1-4.3,6c-0.9,1.2-0.8,1.7,0.4,2.5&#10;&#9;c16.4,11.2,32.8,22.4,49,33.9c4.6,3.3,9.2,5.4,14.9,4.5C884.5,591.6,884.7,591.7,885,591.7z" style="fill: rgb(107, 61, 52);" transform="matrix(1.2658737897872925, 0, 0, 1.2658737897872925, -191.00262850776582, -209.0258174977912)"/>
<path class="st2" d="M577.3,610.8c-0.2-0.5-0.6-0.3-0.9-0.3c-5.4,0-10.7,0-16.1,0c-0.6,0-1.1,0.2-1.6,0.5c-11,7.9-22,15.8-33,23.7&#10;&#9;c-0.7,0.5-0.9,0.9-0.3,1.6c1.7,2.2,3.3,4.5,4.9,6.8c0.6,0.8,1,0.9,1.8,0.3c2.6-1.9,5.2-3.8,7.8-5.6c12.1-8.7,24.3-17.5,36.4-26.2&#10;&#9;C576.5,611.4,576.8,611.1,577.3,610.8z" style="fill: rgb(107, 61, 52);" transform="matrix(1.2658737897872925, 0, 0, 1.2658737897872925, -191.00262850776582, -209.0258174977912)"/>
<path class="st4" d="M941.2,626.8c0-3.4-0.6-6.1-2-8.6c-2.2-3.8-5.5-5.8-9.9-5.6c-1.2,0.1-1.4,0.4-0.8,1.5c2.3,4.1,4.1,8.5,5.5,13&#10;&#9;c0.3,1.1,0.7,2.3,0.9,3.4c0.2,1.1-0.3,1.9-1.4,2.2c-1.2,0.3-2-0.2-2.4-1.3c-0.2-0.5-0.3-1-0.4-1.5c-1.4-5.1-3.5-10-6.1-14.6&#10;&#9;c-0.3-0.6-0.5-1-1.3-0.5c-3.1,1.9-5.3,6.1-4.7,9.8c0.8,5.2,3.6,9.1,8.1,11.8c3.5,2.1,7.2,3.7,10.5,6.2c0.6,0.5,0.8,0.4,0.9-0.4&#10;&#9;c0.4-3.5,1.4-6.9,2.4-10.3C940.8,629.9,941.2,628.2,941.2,626.8z" style="fill: rgb(36, 154, 75);" transform="matrix(1.2658737897872925, 0, 0, 1.2658737897872925, -191.00262850776582, -209.0258174977912)"/>
<path class="st2" d="M688.5,885.6c-0.1-4.8,0.4-9.6,1.7-14.3c3.2-11.5,10.9-18.3,22.2-21.4c3.2-0.9,6.4-1.4,9.6-1.6&#10;&#9;c0.9-0.1,1.4,0.1,1.4,1.2c-0.1,7.3-1.3,14.4-5,20.8c-4.3,7.6-11.3,11.5-19.4,13.7c-2.7,0.8-5.5,1-8.3,1.6&#10;&#9;C690.1,885.6,689.3,885.6,688.5,885.6z" style="fill: rgb(107, 61, 52);" transform="matrix(1.2658737897872925, 0, 0, 1.2658737897872925, -194.81466950540388, -226.88066809078595)"/>
<g transform="matrix(1, 0, 0, 1, 115.31435367349724, 1.9060230981577035)"><path class="st3" d="M776.4,94.4c0.9,0.8,1.1,1.8,1.1,3c0,12.4,0,24.8,0,37.1c0,0.4,0,0.9,0,1.3c-0.2,1.1-0.9,1.6-1.9,1.6&#10;&#9;s-1.6-0.5-1.9-1.4c-0.1-0.5-0.1-1-0.1-1.4c0-12.4,0-24.9,0-37.3c0-1.2,0.3-2.2,1.3-2.9C775.3,94.4,775.8,94.4,776.4,94.4z" style="fill: rgb(237, 192, 98);" transform="matrix(1.1522083282470703, 0, 0, 1.1522083282470703, -110.85172271728513, -90.00409698486328)"/><path class="st3" d="M755.8,176.5c0.1-11,8.9-19.7,20-19.6c10.8,0.1,19.6,8.9,19.5,19.7c0,10.9-9,19.8-19.9,19.7&#10;&#9;C764.5,196.3,755.7,187.3,755.8,176.5z" style="fill: rgb(237, 192, 98);" transform="matrix(1.1522083282470703, 0, 0, 1.1522083282470703, -110.85172271728513, -90.00409698486328)"/><path class="st3" d="M714.9,178.5c-6.3,0-12.5,0-18.8,0c-1.8,0-2.7-0.7-2.7-2s0.9-2,2.8-2c12.5,0,25,0,37.5,0c0.2,0,0.4,0,0.6,0&#10;&#9;c1.3,0.1,2.3,1,2.2,2.1c-0.1,1.3-0.9,1.9-2.2,1.9c-3.7,0-7.4,0-11.1,0C720.4,178.5,717.7,178.5,714.9,178.5z" style="fill: rgb(237, 192, 98);" transform="matrix(1.1522083282470703, 0, 0, 1.1522083282470703, -110.85172271728513, -90.00409698486328)"/><path class="st3" d="M836,178.5c-6.3,0-12.5,0-18.8,0c-0.9,0-1.7,0-2.3-0.8c-0.7-1.1-0.2-2.6,1.1-3c0.3-0.1,0.6-0.1,0.9-0.1&#10;&#9;c12.8,0,25.6,0,38.4,0c1.3,0,2.2,0.6,2.2,2s-0.9,1.9-2.2,1.9C848.9,178.5,842.5,178.5,836,178.5z" style="fill: rgb(237, 192, 98);" transform="matrix(1.1522083282470703, 0, 0, 1.1522083282470703, -110.85172271728513, -90.00409698486328)"/><path class="st3" d="M777.5,237.3c0,6.3,0,12.6,0,19c0,1.7-0.8,2.6-2.3,2.3c-1.3-0.2-1.7-1.1-1.7-2.3c0-3.5,0-7,0-10.4&#10;&#9;c0-9.2,0-18.3,0-27.5c0-1.3,0.2-2.4,1.8-2.6c1.4-0.2,2.2,0.6,2.2,2.3c0,4.1,0,8.1,0,12.2C777.5,232.6,777.5,234.9,777.5,237.3z" style="fill: rgb(237, 192, 98);" transform="matrix(1.1522083282470703, 0, 0, 1.1522083282470703, -110.85172271728513, -90.00409698486328)"/><path class="st3" d="M724.1,230c-1.6,0-2.5-1.6-1.7-2.9c0.3-0.5,0.7-0.8,1-1.2c6.1-6.1,12.2-12.2,18.3-18.3c0.3-0.3,0.7-0.7,1.1-0.9&#10;&#9;c0.9-0.5,1.8-0.4,2.5,0.3s0.7,1.5,0.2,2.4c-0.2,0.3-0.4,0.5-0.6,0.7c-6.3,6.3-12.7,12.7-19,19C725.3,229.6,724.8,230,724.1,230z" style="fill: rgb(237, 192, 98);" transform="matrix(1.1522083282470703, 0, 0, 1.1522083282470703, -110.85172271728513, -90.00409698486328)"/><path class="st3" d="M805.3,144.8c-0.1-0.7,0.4-1.3,0.9-1.8c6.3-6.3,12.7-12.7,19-19c1.2-1.2,2.4-1.3,3.2-0.4s0.7,2.1-0.4,3.3&#10;&#9;c-6.3,6.3-12.6,12.6-18.9,18.9c-0.7,0.7-1.5,1.4-2.7,0.8C805.7,146.3,805.3,145.7,805.3,144.8z" style="fill: rgb(237, 192, 98);" transform="matrix(1.1522083282470703, 0, 0, 1.1522083282470703, -110.85172271728513, -90.00409698486328)"/><path class="st3" d="M722,125.1c0.1-1.6,1.6-2.5,2.9-1.7c0.4,0.2,0.8,0.6,1.1,0.9c6.2,6.2,12.4,12.4,18.5,18.5&#10;&#9;c0.4,0.4,0.8,0.8,1,1.2c0.4,0.8,0.2,1.6-0.4,2.2c-0.6,0.6-1.4,0.8-2.2,0.3c-0.2-0.1-0.5-0.3-0.6-0.5c-6.5-6.5-13-13-19.6-19.6&#10;&#9;C722.3,126.1,722,125.6,722,125.1z" style="fill: rgb(237, 192, 98);" transform="matrix(1.1522083282470703, 0, 0, 1.1522083282470703, -110.85172271728513, -90.00409698486328)"/><path class="st3" d="M828.9,227.9c0,1.7-1.5,2.6-2.9,1.8c-0.2-0.1-0.4-0.3-0.6-0.5c-6.5-6.5-12.9-12.9-19.4-19.4&#10;&#9;c-0.8-0.8-1-1.8-0.3-2.7c0.6-0.9,1.5-0.9,2.4-0.5c0.3,0.1,0.6,0.4,0.9,0.7c6.4,6.4,12.7,12.7,19.1,19.1&#10;&#9;C828.6,226.8,829,227.3,828.9,227.9z" style="fill: rgb(237, 192, 98);" transform="matrix(1.1522083282470703, 0, 0, 1.1522083282470703, -110.85172271728513, -90.00409698486328)"/></g>
<path class="st5" d="M560.2,261.8c-25.7,0-51.4,0-77,0c-2.2,0-2.2,0-1.9-2.2c1.4-13,10.1-22.5,23-24.3c10.6-1.5,19.2,2.4,25.7,10.9&#10;&#9;c0.2,0.2,0.3,0.5,0.5,0.7s0.5,0.7,0.6,0.6c0.5-0.1,0.3-0.6,0.3-1c0.4-12,4.3-22.7,11.9-32c11.7-14.2,26.8-21.1,45.2-20.1&#10;&#9;c24.9,1.4,44.6,18.5,49.9,42.9c1.1,4.9,1.2,9.9,1.2,14.9c0,2.7-0.1,5.4,0,8c0,1.2-0.2,1.6-1.5,1.5c-3.8-0.1-7.5,0-11.3,0&#10;&#9;C604.5,261.8,582.3,261.8,560.2,261.8z" style="fill: rgb(73, 190, 254);" transform="matrix(0.7732654213905334, 0, 0, 0.7732654213905334, 34.31303166826126, -115.43981239588221)"/>
<path class="st5" d="M869,356.6c-21.4,0-42.8,0-64.2,0c-1.6,0-1.9-0.4-1.8-2c0.6-8.1,6.6-15.5,14.7-17.9c8.2-2.4,17.2,0.5,22.3,7.2&#10;&#9;c0.4,0.5,0.8,1,1.2,1.5c0.5-0.6,0.3-1.3,0.4-1.9c1.5-13.3,13.2-23.9,26.3-24.2c14.5-0.4,26.5,10.3,28.2,23.8&#10;&#9;c0.1,0.8,0.3,1.6,0.4,2.4c0.5-0.6,1-1.2,1.5-1.8c5.5-6.8,14.4-9.4,22.7-6.6c7.9,2.6,13.6,10.1,14,18.1c0.1,1.3-0.3,1.6-1.5,1.6&#10;&#9;C911.8,356.6,890.4,356.6,869,356.6z" style="fill: rgb(73, 190, 254);" transform="matrix(1.2912807464599607, 0, 0, 1.2912807464599607, -449.6567687988281, -331.4993424933918)"/>

<path class="st4" d="M542,419.7c-0.2,4.2-1,8.4-2.3,12.4c-3.2,9.8-10,15.9-19.7,19c-3.8,1.2-7.7,1.9-11.6,2.2&#10;&#9;c-0.7,0-1.2,0.1-1.2-0.9c0.1-9.4,1.9-18.3,8.3-25.7c4.5-5.1,10.5-7.8,17-9.4c2.6-0.7,5.3-1,7.9-1.3c1.2-0.1,1.8,0.1,1.7,1.5&#10;&#9;C541.9,418.3,542,419.1,542,419.7z" style="fill: rgb(36, 154, 75);" transform="matrix(1.2658737897872925, 0, 0, 1.2658737897872925, -191.00262850776582, -209.0258174977912)"/>
<path class="st4" d="M837.2,736.4c-0.1,6.2-1.6,12-4.1,17.7c-0.3,0.7-0.5,1.1-1.4,0.6c-7.7-4.2-14.3-9.6-18-17.8&#10;&#9;c-3.2-7-2.6-14.3-0.7-21.5c0.7-2.6,1.6-5.1,2.7-7.5c0.3-0.6,0.5-1,1.3-0.6c9,5,16.4,11.2,19.4,21.6&#10;&#9;C837,731.2,837.3,733.8,837.2,736.4z" style="fill: rgb(36, 154, 75);" transform="matrix(1.2658737897872925, 0, 0, 1.2658737897872925, -191.00262850776582, -209.0258174977912)"/>
<path class="st2" d="M487.2,689.8c2,0.1,3.7,0.3,5.5,0.8c0.6,0.2,1,0.2,0.7,1c-2.6,7.3-6.5,13.3-14.8,14.9&#10;&#9;c-3.6,0.7-7.2,0.4-10.8-0.4c-0.6-0.1-1.1-0.3-0.9-1.1c1.2-7,8.4-14,15.4-15C484,689.8,485.7,689.5,487.2,689.8z" style="fill: rgb(107, 61, 52);" transform="matrix(1.2658737897872925, 0, 0, 1.2658737897872925, -191.00262850776582, -209.0258174977912)"/>
<path class="st2" d="M476.1,522.8c5,0.4,4.8-0.8,3.4,4.3c-1.8,6.5-5.4,11.6-12.2,13.7c-3.4,1-6.8,1.3-10.3,0.9c-1-0.1-1.2-0.5-1-1.4&#10;&#9;c2.1-10.1,7.6-17,19-17.4C475.3,522.9,475.8,522.9,476.1,522.8z" style="fill: rgb(107, 61, 52);" transform="matrix(1.2658737897872925, 0, 0, 1.2658737897872925, -191.00262850776582, -209.0258174977912)"/>
<path class="st4" d="M593.5,747.2c0,11.1-5.7,17.6-17.5,20.2c-1.3,0.3-1.2-0.6-1.2-1.3c-0.9-11.7,3.2-19.3,14.8-22.6&#10;&#9;c4.2-1.2,3.6-1.7,3.9,2.9C593.5,746.6,593.5,746.9,593.5,747.2z" style="fill: rgb(36, 154, 75);" transform="matrix(1.2658737897872925, 0, 0, 1.2658737897872925, -191.00262850776582, -209.0258174977912)"/>
<path class="st4" d="M814.1,413.3c-3.3-0.1-6.2-0.8-8.9-2.5c-3.4-2.2-6-5.1-8.1-8.6c-0.4-0.7-0.5-1,0.4-1.4&#10;&#9;c11.5-5.4,21-3.4,28.2,8.2c0.4,0.7,0.5,1.1-0.4,1.4C821.8,412.1,818,413.2,814.1,413.3z" style="fill: rgb(36, 154, 75);" transform="matrix(1.2658737897872925, 0, 0, 1.2658737897872925, -191.00262850776582, -209.0258174977912)"/>
<path class="st2" d="M586.6,327c-6.5,0-11.2-3.3-14.8-8.2c-3.2-4.3-3.6-3.7,1.6-5.6c10.6-3.9,18.6-0.5,24.9,9.5&#10;&#9;c0.5,0.8,0.4,1.1-0.4,1.6C594.6,325.9,590.2,327,586.6,327z" style="fill: rgb(107, 61, 52);" transform="matrix(1.223179328131948, 0.32599000751579504, -0.32599000751579504, 1.223179328131948, -117.25064959005994, -141.80599213453044)"/>
<path class="st2" d="M563.7,801.2c1.8-0.1,3.5,0.2,5.3,0.5c8.7,1.8,12.8,7.9,14.7,16c0.7,3.2,0.7,3.2-2.6,3.1&#10;&#9;c-2.6,0-5.1-0.4-7.6-1.1c-7.2-2.2-10.7-7.5-12.6-14.4c-0.1-0.2-0.1-0.4-0.1-0.6C560,800.6,559.3,801.3,563.7,801.2z" style="fill: rgb(107, 61, 52);" transform="matrix(1.2658737897872925, 0, 0, 1.2658737897872925, -191.00262850776582, -209.0258174977912)"/>
<path class="st2" d="M873,483.1c-1,0-2,0-3.1,0c-0.7,0-1.1-0.3-0.9-1.1c1.4-6.7,4-12.6,10.5-15.8c4.1-2,8.4-2.3,12.9-1.9&#10;&#9;c0.6,0.1,1.2,0,1,1c-1.3,6.1-3.5,11.6-9.1,15.1C880.9,482.5,877,483.2,873,483.1z" style="fill: rgb(107, 61, 52);" transform="matrix(1.2658737897872925, 0, 0, 1.2658737897872925, -191.00262850776582, -209.0258174977912)"/>
<path class="st4" d="M850.7,820.2c-5.1-0.1-4.3,0-3.2-4.1c1.6-6,4.7-10.9,10.8-13.4c3.9-1.6,7.9-1.7,12-1.5c0.9,0.1,1,0.5,0.9,1.3&#10;&#9;C868.8,814,862.6,820.2,850.7,820.2z" style="fill: rgb(36, 154, 75);" transform="matrix(1.2658737897872925, 0, 0, 1.2658737897872925, -191.00262850776582, -209.0258174977912)"/>







<path class="st2" d="M703.3,405.6c-6.4,0-11.6-5-11.6-11.2s5.2-11.3,11.6-11.3c6.4,0,11.6,5.1,11.6,11.3&#10;&#9;C714.9,400.6,709.8,405.6,703.3,405.6z" style="fill: rgb(107, 61, 52);" transform="matrix(1.2658737897872925, 0, 0, 1.2658737897872925, -191.00262850776582, -209.0258174977912)"/>
<path class="st1" d="M729.4,460.4c-30,0.6-54.3,25.4-54.3,55.4c0,54.4,64.9,97.6,92.7,113.7c1.8,1.1,3.9,1.6,6,1.6l0,0&#10;&#9;c3.1,0,6.1-1.2,8.4-3.4c2.4-2.3,3.7-5.4,3.7-8.7V516.9C785.9,485.4,760.5,459.8,729.4,460.4z" style="fill: rgb(232, 56, 74); stroke: rgb(107, 61, 52); stroke-width: 4;" transform="matrix(1.2658737897872925, 0, 0, 1.2658737897872925, -191.00262850776582, -209.0258174977912)"/>
<path d="M 296.4200134277344 155.1999969482422 C 296.6000061035156 155.1999969482422 296.7533264160156 155.26333618164062 296.8800048828125 155.38999938964844 C 297.00665283203125 155.51666259765625 297.07000732421875 155.6699981689453 297.07000732421875 155.85000610351562 L 297.07000732421875 171.35000610351562 C 297.07000732421875 171.52999877929688 297.00665283203125 171.68333435058594 296.8800048828125 171.80999755859375 C 296.7533264160156 171.93666076660156 296.6000061035156 172 296.4200134277344 172 L 295.44000244140625 172 C 295.26666259765625 172 295.11334228515625 171.93666076660156 294.9800109863281 171.80999755859375 C 294.85333251953125 171.68333435058594 294.7900085449219 171.52999877929688 294.7900085449219 171.35000610351562 L 294.7900085449219 164.5800018310547 L 286.3399963378906 164.5800018310547 L 286.3399963378906 171.35000610351562 C 286.3399963378906 171.52999877929688 286.27667236328125 171.68333435058594 286.1499938964844 171.80999755859375 C 286.0233459472656 171.93666076660156 285.8733215332031 172 285.70001220703125 172 L 284.7099914550781 172 C 284.5366516113281 172 284.38665771484375 171.94000244140625 284.260009765625 171.82000732421875 C 284.1266784667969 171.6999969482422 284.05999755859375 171.5433349609375 284.05999755859375 171.35000610351562 L 284.05999755859375 155.85000610351562 C 284.05999755859375 155.6699981689453 284.1266784667969 155.51666259765625 284.260009765625 155.38999938964844 C 284.38665771484375 155.26333618164062 284.5366516113281 155.1999969482422 284.7099914550781 155.1999969482422 L 285.70001220703125 155.1999969482422 C 285.8733215332031 155.1999969482422 286.0233459472656 155.26333618164062 286.1499938964844 155.38999938964844 C 286.27667236328125 155.51666259765625 286.3399963378906 155.6699981689453 286.3399963378906 155.85000610351562 L 286.3399963378906 162.4199981689453 L 294.7900085449219 162.4199981689453 L 294.7900085449219 155.85000610351562 C 294.7900085449219 155.6699981689453 294.85333251953125 155.51666259765625 294.9800109863281 155.38999938964844 C 295.11334228515625 155.26333618164062 295.26666259765625 155.1999969482422 295.44000244140625 155.1999969482422 L 296.4200134277344 155.1999969482422 ZM 305.8503112792969 159.27999877929688 C 307.5636291503906 159.27999877929688 308.9169921875 159.82333374023438 309.9103088378906 160.91000366210938 C 310.89697265625 161.99667358398438 311.39031982421875 163.47666931152344 311.39031982421875 165.35000610351562 L 311.39031982421875 166 C 311.39031982421875 166.17333984375 311.32696533203125 166.32666015625 311.2003173828125 166.4600067138672 C 311.0736389160156 166.586669921875 310.92364501953125 166.64999389648438 310.75030517578125 166.64999389648438 L 302.49029541015625 166.64999389648438 L 302.49029541015625 166.7899932861328 C 302.5236511230469 167.85000610351562 302.84698486328125 168.67999267578125 303.4602966308594 169.27999877929688 C 304.080322265625 169.8800048828125 304.8769836425781 170.17999267578125 305.8503112792969 170.17999267578125 C 306.6502990722656 170.17999267578125 307.27032470703125 170.07333374023438 307.7102966308594 169.86000061035156 C 308.1502990722656 169.65333557128906 308.5469665527344 169.36000061035156 308.9002990722656 168.97999572753906 C 309.0269775390625 168.84666442871094 309.1436462402344 168.7566680908203 309.25030517578125 168.7100067138672 C 309.3503112792969 168.663330078125 309.49029541015625 168.63999938964844 309.6703186035156 168.63999938964844 L 310.39031982421875 168.63999938964844 C 310.57696533203125 168.63999938964844 310.7369689941406 168.70333862304688 310.87030029296875 168.8300018310547 C 310.9969787597656 168.9566650390625 311.0503234863281 169.11000061035156 311.0303039550781 169.2899932861328 C 310.9703063964844 169.72332763671875 310.7369689941406 170.1666717529297 310.330322265625 170.6199951171875 C 309.9169921875 171.07333374023438 309.330322265625 171.4566650390625 308.5703125 171.77000427246094 C 307.810302734375 172.0833282470703 306.9036560058594 172.24000549316406 305.8503112792969 172.24000549316406 C 304.8236389160156 172.24000549316406 303.9103088378906 172.00332641601562 303.1103210449219 171.52999877929688 C 302.310302734375 171.05667114257812 301.6769714355469 170.4066619873047 301.2102966308594 169.5800018310547 C 300.7369689941406 168.74667358398438 300.4503173828125 167.80999755859375 300.3503112792969 166.77000427246094 C 300.3236389160156 166.2899932861328 300.310302734375 165.9199981689453 300.310302734375 165.66000366210938 C 300.310302734375 165.4066619873047 300.3236389160156 165.0399932861328 300.3503112792969 164.55999755859375 C 300.4503173828125 163.56666564941406 300.7369689941406 162.6699981689453 301.2102966308594 161.8699951171875 C 301.6769714355469 161.07000732421875 302.3069763183594 160.44000244140625 303.1003112792969 159.97999572753906 C 303.8936462402344 159.51333618164062 304.810302734375 159.27999877929688 305.8503112792969 159.27999877929688 M 309.2303161621094 164.6300048828125 L 309.2303161621094 164.55999755859375 C 309.2303161621094 163.586669921875 308.92364501953125 162.80667114257812 308.310302734375 162.22000122070312 C 307.6969909667969 161.63333129882812 306.8769836425781 161.33999633789062 305.8503112792969 161.33999633789062 C 304.92364501953125 161.33999633789062 304.136962890625 161.6366729736328 303.49029541015625 162.22999572753906 C 302.83697509765625 162.82333374023438 302.5036315917969 163.60000610351562 302.49029541015625 164.55999755859375 L 302.49029541015625 164.6300048828125 L 309.2303161621094 164.6300048828125 ZM 316.4738464355469 171.35000610351562 C 316.4738464355469 171.52999877929688 316.4104919433594 171.68333435058594 316.2838439941406 171.80999755859375 C 316.15716552734375 171.93666076660156 316.0071716308594 172 315.8338317871094 172 L 314.94384765625 172 C 314.7638244628906 172 314.6105041503906 171.93666076660156 314.48382568359375 171.80999755859375 C 314.357177734375 171.68333435058594 314.2938232421875 171.52999877929688 314.2938232421875 171.35000610351562 L 314.2938232421875 155.61000061035156 C 314.2938232421875 155.42999267578125 314.357177734375 155.27667236328125 314.48382568359375 155.14999389648438 C 314.6105041503906 155.02333068847656 314.7638244628906 154.95999145507812 314.94384765625 154.95999145507812 L 315.8338317871094 154.95999145507812 C 316.0071716308594 154.95999145507812 316.15716552734375 155.02333068847656 316.2838439941406 155.14999389648438 C 316.4104919433594 155.27667236328125 316.4738464355469 155.42999267578125 316.4738464355469 155.61000061035156 L 316.4738464355469 171.35000610351562 ZM 322.2559509277344 171.35000610351562 C 322.2559509277344 171.52999877929688 322.1925964355469 171.68333435058594 322.0659484863281 171.80999755859375 C 321.93927001953125 171.93666076660156 321.7892761230469 172 321.6159362792969 172 L 320.7259521484375 172 C 320.5459289550781 172 320.3926086425781 171.93666076660156 320.26593017578125 171.80999755859375 C 320.1392822265625 171.68333435058594 320.075927734375 171.52999877929688 320.075927734375 171.35000610351562 L 320.075927734375 155.61000061035156 C 320.075927734375 155.42999267578125 320.1392822265625 155.27667236328125 320.26593017578125 155.14999389648438 C 320.3926086425781 155.02333068847656 320.5459289550781 154.95999145507812 320.7259521484375 154.95999145507812 L 321.6159362792969 154.95999145507812 C 321.7892761230469 154.95999145507812 321.93927001953125 155.02333068847656 322.0659484863281 155.14999389648438 C 322.1925964355469 155.27667236328125 322.2559509277344 155.42999267578125 322.2559509277344 155.61000061035156 L 322.2559509277344 171.35000610351562 ZM 336.6579895019531 164.6300048828125 C 336.6913146972656 164.98333740234375 336.7079772949219 165.36666870117188 336.7079772949219 165.77999877929688 C 336.7079772949219 166.1666717529297 336.6913146972656 166.5366668701172 336.6579895019531 166.88999938964844 C 336.5113220214844 168.52333068847656 335.947998046875 169.82333374023438 334.9679870605469 170.7899932861328 C 333.9813232421875 171.7566680908203 332.6479797363281 172.24000549316406 330.9679870605469 172.24000549316406 C 329.2879943847656 172.24000549316406 327.9579772949219 171.7566680908203 326.9779968261719 170.7899932861328 C 325.9913024902344 169.82333374023438 325.4246520996094 168.52333068847656 325.2779846191406 166.88999938964844 C 325.2646484375 166.7100067138672 325.25799560546875 166.33999633789062 325.25799560546875 165.77999877929688 C 325.25799560546875 165.19332885742188 325.2646484375 164.80999755859375 325.2779846191406 164.6300048828125 C 325.41131591796875 162.99667358398438 325.9713134765625 161.69667053222656 326.9579772949219 160.72999572753906 C 327.9513244628906 159.76333618164062 329.2879943847656 159.27999877929688 330.9679870605469 159.27999877929688 C 332.6479797363281 159.27999877929688 333.9846496582031 159.76333618164062 334.9779968261719 160.72999572753906 C 335.9713134765625 161.69667053222656 336.53131103515625 162.99667358398438 336.6579895019531 164.6300048828125 M 334.4779968261719 164.75 C 334.37799072265625 163.72999572753906 334.0379943847656 162.9066619873047 333.4579772949219 162.27999877929688 C 332.8713073730469 161.65333557128906 332.04132080078125 161.33999633789062 330.9679870605469 161.33999633789062 C 329.8946533203125 161.33999633789062 329.0679931640625 161.65333557128906 328.48797607421875 162.27999877929688 C 327.90130615234375 162.9066619873047 327.5613098144531 163.72999572753906 327.4679870605469 164.75 C 327.447998046875 164.94332885742188 327.43798828125 165.2866668701172 327.43798828125 165.77999877929688 C 327.43798828125 166.25999450683594 327.447998046875 166.58999633789062 327.4679870605469 166.77000427246094 C 327.5613098144531 167.7899932861328 327.90130615234375 168.6133270263672 328.48797607421875 169.24000549316406 C 329.0679931640625 169.86666870117188 329.8946533203125 170.17999267578125 330.9679870605469 170.17999267578125 C 332.04132080078125 170.17999267578125 332.8713073730469 169.86666870117188 333.4579772949219 169.24000549316406 C 334.0379943847656 168.6133270263672 334.37799072265625 167.7899932861328 334.4779968261719 166.77000427246094 C 334.504638671875 166.4166717529297 334.5179748535156 166.086669921875 334.5179748535156 165.77999877929688 C 334.5179748535156 165.47999572753906 334.504638671875 165.1366729736328 334.4779968261719 164.75 ZM 341.9114074707031 167.25 C 341.9114074707031 167.42333984375 341.8480529785156 167.57333374023438 341.7214050292969 167.6999969482422 C 341.58807373046875 167.8333282470703 341.4347229003906 167.89999389648438 341.2613830566406 167.89999389648438 L 340.37139892578125 167.89999389648438 C 340.19805908203125 167.89999389648438 340.0480651855469 167.8333282470703 339.92138671875 167.6999969482422 C 339.7880554199219 167.57333374023438 339.7214050292969 167.42333984375 339.7214050292969 167.25 L 339.7214050292969 155.85000610351562 C 339.7214050292969 155.6699981689453 339.7880554199219 155.51666259765625 339.92138671875 155.38999938964844 C 340.0480651855469 155.26333618164062 340.19805908203125 155.1999969482422 340.37139892578125 155.1999969482422 L 341.2613830566406 155.1999969482422 C 341.4347229003906 155.1999969482422 341.58807373046875 155.26333618164062 341.7214050292969 155.38999938964844 C 341.8480529785156 155.51666259765625 341.9114074707031 155.6699981689453 341.9114074707031 155.85000610351562 L 341.9114074707031 167.25 M 342.1513977050781 171.35000610351562 C 342.1513977050781 171.52999877929688 342.08807373046875 171.68333435058594 341.9613952636719 171.80999755859375 C 341.82806396484375 171.93666076660156 341.67474365234375 172 341.50140380859375 172 L 340.13140869140625 172 C 339.95806884765625 172 339.8080749511719 171.93666076660156 339.681396484375 171.80999755859375 C 339.5480651855469 171.68333435058594 339.48138427734375 171.52999877929688 339.48138427734375 171.35000610351562 L 339.48138427734375 169.97999572753906 C 339.48138427734375 169.80667114257812 339.5480651855469 169.6566619873047 339.681396484375 169.52999877929688 C 339.8080749511719 169.40333557128906 339.95806884765625 169.33999633789062 340.13140869140625 169.33999633789062 L 341.50140380859375 169.33999633789062 C 341.67474365234375 169.33999633789062 341.82806396484375 169.40333557128906 341.9613952636719 169.52999877929688 C 342.08807373046875 169.6566619873047 342.1513977050781 169.80667114257812 342.1513977050781 169.97999572753906 L 342.1513977050781 171.35000610351562 Z" transform="matrix(3.907162666320801, -0.436784029006958, 0.436784029006958, 3.907162666320801, -853.3922729492188, -282.8916320800781)" style="white-space: pre; fill: rgb(237, 193, 98);"/></svg>